<?xml version="1.0"?>
<svg xmlns="http://www.w3.org/2000/svg" viewBox="0 0 50 50">
    <path style="text-indent:0;text-align:start;line-height:normal;text-transform:none;block-progression:tb;-inkscape-font-specification:Sans" d="M 43.28125 2.28125 L 33.5625 12 L 31.3125 9.75 C 30.145354 8.5828542 28.63123 8 27.09375 8 C 25.55627 8 24.010896 8.5828542 22.84375 9.75 L 18.5 14.125 L 17.1875 12.8125 A 1.0001 1.0001 0 0 0 16.375 12.5 A 1.0001 1.0001 0 0 0 15.78125 14.21875 L 35.78125 34.21875 A 1.0001 1.0001 0 1 0 37.1875 32.8125 L 35.875 31.5 L 40.125 27.28125 L 40.25 27.15625 C 42.584292 24.821958 42.584292 21.021792 40.25 18.6875 L 40.09375 18.53125 L 38 16.4375 L 47.71875 6.71875 L 46.28125 5.28125 L 36.5625 15 L 35 13.4375 L 44.71875 3.71875 L 43.28125 2.28125 z M 27.0625 10 C 28.084135 10 29.121396 10.402646 29.90625 11.1875 L 38.8125 20.09375 C 40.382208 21.663458 40.382208 24.180292 38.8125 25.75 L 34.46875 30.09375 L 19.90625 15.53125 L 24.15625 11.28125 L 24.25 11.1875 C 25.034854 10.402646 26.040865 10 27.0625 10 z M 13.3125 15.46875 A 1.0001 1.0001 0 0 0 12.8125 17.1875 L 14.125 18.5 L 9.75 22.84375 C 7.4157083 25.178042 7.4157083 28.978208 9.75 31.3125 L 10.46875 32.03125 L 12 33.5625 L 2.28125 43.28125 L 3.71875 44.71875 L 13.4375 35 L 15 36.5625 L 5.28125 46.28125 L 6.71875 47.71875 L 16.4375 38 L 18.6875 40.25 C 21.021792 42.584292 24.821958 42.584292 27.15625 40.25 L 31.5 35.875 L 32.8125 37.1875 A 1.0001 1.0001 0 1 0 34.21875 35.78125 L 14.21875 15.78125 A 1.0001 1.0001 0 0 0 13.5 15.46875 A 1.0001 1.0001 0 0 0 13.40625 15.46875 A 1.0001 1.0001 0 0 0 13.3125 15.46875 z M 15.53125 19.90625 L 30.09375 34.46875 L 25.75 38.8125 C 24.180292 40.382208 21.663458 40.382208 20.09375 38.8125 L 11.1875 29.90625 C 9.6177917 28.336542 9.6177917 25.819708 11.1875 24.25 L 15.53125 19.90625 z"/>
</svg>
