<?xml version="1.0"?>
<svg xmlns="http://www.w3.org/2000/svg" viewBox="0 0 50 50">
    <path style="text-indent:0;text-align:start;line-height:normal;text-transform:none;block-progression:tb;-inkscape-font-specification:Sans" d="M 43.28125 2.28125 L 38.5625 7 L 36.3125 4.75 C 35.145354 3.5828542 33.59998 3 32.0625 3 C 30.52502 3 29.010896 3.5828542 27.84375 4.75 L 23 9.5625 L 21.71875 8.28125 A 1.0001 1.0001 0 0 0 20.78125 8 A 1.0001 1.0001 0 0 0 20.28125 9.71875 L 25.0625 14.5 L 18.9375 20.65625 L 20.34375 22.0625 L 26.5 15.9375 L 34.0625 23.5 L 27.9375 29.65625 L 29.34375 31.0625 L 35.5 24.9375 L 40.28125 29.71875 A 1.016466 1.016466 0 1 0 41.71875 28.28125 L 40.4375 27 L 45.21875 22.15625 C 47.553042 19.821958 47.553042 15.990542 45.21875 13.65625 L 45.15625 13.59375 L 43 11.4375 L 47.71875 6.71875 L 46.28125 5.28125 L 41.5625 10 L 40 8.4375 L 44.71875 3.71875 L 43.28125 2.28125 z M 32.0625 4.96875 C 33.084136 4.96875 34.121396 5.3713959 34.90625 6.15625 L 43.8125 15.0625 C 45.382208 16.632208 45.382208 19.149042 43.8125 20.71875 L 43.8125 20.75 L 39 25.5625 L 24.4375 11 L 29.25 6.15625 C 30.034854 5.3713958 31.040865 4.96875 32.0625 4.96875 z M 8.90625 19.96875 A 1.0001 1.0001 0 0 0 8.78125 20 A 1.0001 1.0001 0 0 0 8.28125 21.71875 L 9.5625 23 L 4.75 27.84375 C 2.4157083 30.178042 2.4157083 33.978208 4.75 36.3125 L 7 38.5625 L 2.28125 43.28125 L 3.71875 44.71875 L 8.4375 40 L 10 41.5625 L 5.28125 46.28125 L 6.71875 47.71875 L 11.4375 43 L 13.6875 45.25 C 16.021792 47.584292 19.821958 47.584292 22.15625 45.25 L 27 40.4375 L 28.28125 41.71875 A 1.016466 1.016466 0 1 0 29.71875 40.28125 L 9.71875 20.28125 A 1.0001 1.0001 0 0 0 8.90625 19.96875 z M 11 24.4375 L 25.5625 39 L 20.75 43.84375 C 19.180292 45.413458 16.663458 45.413458 15.09375 43.84375 L 6.15625 34.90625 C 4.5865417 33.336542 4.5865417 30.819708 6.15625 29.25 L 11 24.4375 z"/>
</svg>
